<?xml version="1.0" standalone="no"?>
<!DOCTYPE svg PUBLIC "-//W3C//DTD SVG 20010904//EN"
 "http://www.w3.org/TR/2001/REC-SVG-20010904/DTD/svg10.dtd">
<svg version="1.0" xmlns="http://www.w3.org/2000/svg"
 width="637.000000pt" height="637.000000pt" viewBox="0 0 637.000000 637.000000"
 preserveAspectRatio="xMidYMid meet">
<metadata>
Created by potrace 1.11, written by Peter Selinger 2001-2013
</metadata>
<g transform="translate(0.000000,637.000000) scale(0.100000,-0.100000)"
fill="#000000" stroke="none">
<path d="M3108 5194 c-2 -1 -59 -5 -128 -8 -69 -4 -136 -9 -150 -10 -143 -19
-176 -24 -200 -31 -8 -2 -35 -7 -60 -10 -24 -4 -47 -8 -51 -10 -3 -2 -21 -7
-40 -10 -224 -39 -681 -219 -891 -352 -21 -12 -40 -23 -43 -23 -3 0 -58 -36
-122 -80 -406 -275 -744 -634 -987 -1050 -39 -66 -166 -320 -160 -320 2 0 -2
-10 -10 -22 -24 -37 -104 -263 -141 -398 -81 -294 -116 -549 -118 -850 -2
-452 89 -711 285 -803 186 -88 456 -46 1023 158 72 26 148 54 170 61 22 7 150
51 283 96 l244 83 0 110 c1 271 84 509 252 724 102 131 353 386 602 611 48 44
329 288 403 350 29 25 62 52 73 62 10 9 38 31 60 50 44 35 109 89 118 98 13
13 595 479 725 580 39 30 124 97 190 149 66 52 125 98 132 104 10 7 11 -31 8
-170 -7 -288 -16 -611 -20 -718 -2 -55 -7 -170 -10 -255 -3 -85 -8 -186 -10
-225 -2 -38 -6 -119 -10 -180 -3 -60 -8 -139 -10 -175 -3 -36 -7 -92 -10 -125
-2 -33 -7 -96 -10 -140 -4 -44 -8 -96 -10 -115 -2 -19 -6 -69 -10 -110 -8 -96
-14 -159 -20 -190 -2 -14 -7 -54 -11 -90 -3 -36 -7 -72 -9 -80 -3 -17 -14 -90
-21 -135 -2 -16 -6 -41 -9 -55 -3 -14 -7 -39 -10 -57 l-5 -32 137 -44 c141
-46 255 -86 513 -177 455 -162 649 -210 835 -205 182 5 286 63 371 209 124
210 150 656 69 1176 -19 121 -80 356 -129 497 -118 335 -291 651 -516 937
-116 148 -342 376 -485 489 -11 9 -40 32 -65 53 -167 137 -548 351 -797 448
-162 63 -440 140 -578 161 -22 3 -47 7 -55 10 -8 2 -42 7 -75 11 -33 3 -70 8
-82 9 -86 11 -418 26 -425 19z m122 -487 c13 -7 34 -26 45 -43 19 -28 20 -44
20 -241 -1 -235 -4 -249 -71 -280 -31 -15 -39 -16 -76 -3 -78 28 -83 42 -84
278 0 224 3 243 53 281 32 23 76 27 113 8z m-1987 -756 c27 -11 298 -275 316
-309 15 -28 14 -77 -3 -110 -22 -42 -62 -58 -130 -53 -25 1 -311 284 -327 322
-36 89 55 184 144 150z m4134 -180 c53 -39 58 -130 9 -176 -36 -34 -305 -230
-327 -238 -57 -22 -147 27 -150 81 -3 37 4 67 18 88 16 24 288 232 337 258 33
17 79 11 113 -13z m-4511 -1680 c89 -58 54 -209 -49 -212 -17 0 -113 -1 -212
-1 -201 -1 -231 7 -260 62 -19 37 -19 63 0 101 33 62 54 67 289 65 161 -1 216
-5 232 -15z m5041 -79 c16 -12 35 -38 42 -59 17 -50 -4 -104 -50 -132 -29 -18
-49 -20 -243 -18 -185 2 -214 4 -237 20 -82 56 -52 190 47 206 20 3 121 5 225
5 172 -1 190 -3 216 -22z"/>
<path d="M3071 2269 c-102 -26 -168 -64 -241 -138 -86 -88 -156 -225 -176
-347 l-5 -31 63 13 c35 7 83 16 108 19 25 3 63 7 85 10 93 12 168 16 305 15
136 0 198 -3 295 -15 22 -2 63 -7 90 -11 28 -3 68 -10 90 -15 22 -4 50 -9 62
-9 l22 0 -19 68 c-48 174 -132 298 -256 378 -110 71 -287 98 -423 63z"/>
</g>
</svg>
